# xmcd CD database file
#
# Track frame offsets:
#	150
#	23177
#	41784
#	65168
#	89158
#	115522
#	135839
#	151691
#	174741
#	188923
#	206290
#
# Disc length: 2922 seconds
#
# Revision: 1
# Processed by: cddbd v1.5.2PL0 Copyright (c) Steve Scherf et al.
# Submitted via: CDex 1.51
#
DISCID=900b680b
DTITLE=Terje Rypdal - If Mountain Could Sing
DYEAR=1900
DGENRE=Jazz
TTITLE0=The Return Of Per Ui
TTITLE1=It's In The Air
TTITLE2=But On The Other Hand
TTITLE3=If Mountains Could Sing
TTITLE4=Private Eye
TTITLE5=Foran Peisen
TTITLE6=Dancing Without Reindeers
TTITLE7=One For The Roadrunner
TTITLE8=Blue Angel
TTITLE9=Genie
TTITLE10=Lonesome Guitar
EXTD=
EXTT0=
EXTT1=
EXTT2=
EXTT3=
EXTT4=
EXTT5=
EXTT6=
EXTT7=
EXTT8=
EXTT9=
EXTT10=
PLAYORDER=
